<svg width="15" height="19" viewBox="0 0 15 19" fill="none" xmlns="http://www.w3.org/2000/svg">
<path d="M7.49851 0C5.51038 0.00251455 3.60437 0.842927 2.19861 2.33687C0.792861 3.83081 0.00216883 5.85627 0 7.96892C0 12.1442 6.08374 17.7294 6.77958 18.3532L7.5 19L8.22042 18.3532C8.91477 17.7294 15 12.1442 15 7.96892C14.9978 5.85573 14.2067 3.82978 12.8003 2.33575C11.3939 0.841719 9.48716 0.00167638 7.49851 0ZM7.49851 15.8674C5.21506 13.657 2.23354 10.066 2.23354 7.96892C2.23354 6.48511 2.78824 5.06207 3.77561 4.01286C4.76298 2.96365 6.10215 2.37421 7.49851 2.37421C8.89487 2.37421 10.234 2.96365 11.2214 4.01286C12.2088 5.06207 12.7635 6.48511 12.7635 7.96892C12.7635 10.0621 9.78122 13.6547 7.49851 15.8674Z" fill="url(#paint0_linear_1_4269)"/>
<path d="M7 10C8.10457 10 9 8.88071 9 7.5C9 6.11929 8.10457 5 7 5C5.89543 5 5 6.11929 5 7.5C5 8.88071 5.89543 10 7 10Z" fill="url(#paint1_linear_1_4269)"/>
<defs>
<linearGradient id="paint0_linear_1_4269" x1="-3" y1="1.38738e-07" x2="13.5" y2="20.5" gradientUnits="userSpaceOnUse">
<stop stop-color="#5A6CEA"/>
<stop offset="1" stop-color="#5765C2"/>
</linearGradient>
<linearGradient id="paint1_linear_1_4269" x1="4.2" y1="5" x2="8.52947" y2="10.4508" gradientUnits="userSpaceOnUse">
<stop stop-color="#5A6CEA"/>
<stop offset="1" stop-color="#5765C2"/>
</linearGradient>
</defs>
</svg>
